<?xml version="1.0" encoding="UTF-8"?>
<svg xmlns="http://www.w3.org/2000/svg" version="1.1" width="500" height="500" viewBox="0 0 500 500"><rect x="0" y="0" width="500" height="500" fill="#ffffff"/><g transform="scale(15.152)"><g transform="translate(0,0)"><path fill-rule="evenodd" d="M8 0L8 2L10 2L10 4L8 4L8 9L9 9L9 10L6 10L6 9L7 9L7 8L5 8L5 9L3 9L3 8L0 8L0 9L2 9L2 10L4 10L4 12L5 12L5 11L7 11L7 12L6 12L6 13L8 13L8 14L3 14L3 13L1 13L1 12L3 12L3 11L1 11L1 12L0 12L0 15L2 15L2 16L0 16L0 18L1 18L1 17L2 17L2 18L3 18L3 19L1 19L1 20L0 20L0 21L2 21L2 20L6 20L6 21L3 21L3 22L4 22L4 23L2 23L2 22L0 22L0 23L2 23L2 24L0 24L0 25L8 25L8 26L9 26L9 27L8 27L8 28L9 28L9 30L8 30L8 33L9 33L9 32L13 32L13 33L16 33L16 32L15 32L15 31L17 31L17 30L18 30L18 29L19 29L19 31L18 31L18 32L19 32L19 33L20 33L20 30L21 30L21 31L22 31L22 32L23 32L23 33L25 33L25 32L26 32L26 33L27 33L27 32L26 32L26 29L27 29L27 30L28 30L28 32L29 32L29 33L30 33L30 32L29 32L29 31L30 31L30 29L29 29L29 28L30 28L30 27L29 27L29 26L30 26L30 19L29 19L29 22L28 22L28 21L27 21L27 20L26 20L26 18L27 18L27 19L28 19L28 16L29 16L29 18L32 18L32 19L33 19L33 16L32 16L32 17L30 17L30 16L29 16L29 15L27 15L27 14L28 14L28 13L27 13L27 12L28 12L28 11L30 11L30 10L31 10L31 11L33 11L33 8L31 8L31 9L30 9L30 10L28 10L28 9L29 9L29 8L25 8L25 5L24 5L24 9L23 9L23 11L22 11L22 10L21 10L21 8L20 8L20 7L21 7L21 5L22 5L22 4L25 4L25 0L24 0L24 2L23 2L23 0L22 0L22 1L20 1L20 2L21 2L21 5L20 5L20 7L19 7L19 4L20 4L20 3L19 3L19 4L18 4L18 1L19 1L19 0L18 0L18 1L17 1L17 4L18 4L18 8L20 8L20 9L19 9L19 10L18 10L18 9L17 9L17 5L16 5L16 8L14 8L14 9L13 9L13 10L14 10L14 9L15 9L15 11L14 11L14 15L15 15L15 16L13 16L13 12L11 12L11 13L12 13L12 15L11 15L11 16L10 16L10 15L9 15L9 17L8 17L8 14L9 14L9 13L10 13L10 11L9 11L9 10L11 10L11 11L12 11L12 10L11 10L11 8L13 8L13 6L12 6L12 4L11 4L11 3L13 3L13 5L14 5L14 7L15 7L15 5L14 5L14 4L15 4L15 3L16 3L16 2L15 2L15 3L14 3L14 2L13 2L13 0L11 0L11 1L9 1L9 0ZM14 0L14 1L15 1L15 0ZM11 1L11 2L12 2L12 1ZM22 2L22 3L23 3L23 2ZM9 5L9 8L10 8L10 6L11 6L11 7L12 7L12 6L11 6L11 5ZM22 6L22 7L23 7L23 6ZM25 9L25 11L27 11L27 10L26 10L26 9ZM16 10L16 11L17 11L17 13L16 13L16 12L15 12L15 13L16 13L16 16L15 16L15 17L14 17L14 18L13 18L13 16L11 16L11 18L12 18L12 19L11 19L11 20L9 20L9 19L10 19L10 18L7 18L7 17L6 17L6 16L7 16L7 15L5 15L5 16L3 16L3 18L4 18L4 17L5 17L5 19L6 19L6 20L7 20L7 19L8 19L8 21L6 21L6 22L5 22L5 23L4 23L4 24L5 24L5 23L6 23L6 24L7 24L7 23L6 23L6 22L8 22L8 21L9 21L9 23L12 23L12 21L11 21L11 20L13 20L13 19L14 19L14 21L13 21L13 22L15 22L15 21L16 21L16 20L15 20L15 17L16 17L16 16L17 16L17 18L16 18L16 19L17 19L17 22L16 22L16 24L15 24L15 25L16 25L16 24L17 24L17 25L18 25L18 26L16 26L16 27L17 27L17 29L18 29L18 26L19 26L19 25L20 25L20 24L18 24L18 23L19 23L19 22L18 22L18 21L20 21L20 22L22 22L22 23L21 23L21 26L20 26L20 27L19 27L19 28L21 28L21 30L22 30L22 31L23 31L23 32L24 32L24 31L25 31L25 30L24 30L24 29L23 29L23 27L24 27L24 25L23 25L23 24L22 24L22 23L23 23L23 22L22 22L22 21L24 21L24 20L22 20L22 19L23 19L23 17L24 17L24 15L25 15L25 17L26 17L26 16L27 16L27 15L26 15L26 14L25 14L25 13L26 13L26 12L25 12L25 13L24 13L24 12L22 12L22 11L21 11L21 10L20 10L20 11L21 11L21 13L22 13L22 14L21 14L21 15L19 15L19 13L20 13L20 12L18 12L18 11L17 11L17 10ZM29 12L29 14L32 14L32 15L33 15L33 12L31 12L31 13L30 13L30 12ZM17 13L17 14L18 14L18 13ZM23 13L23 15L24 15L24 13ZM2 14L2 15L3 15L3 14ZM19 16L19 19L20 19L20 21L21 21L21 19L20 19L20 18L21 18L21 17L20 17L20 16ZM6 18L6 19L7 19L7 18ZM17 18L17 19L18 19L18 18ZM24 18L24 19L25 19L25 18ZM25 20L25 21L26 21L26 20ZM32 20L32 21L31 21L31 22L32 22L32 23L33 23L33 20ZM17 22L17 23L18 23L18 22ZM24 22L24 24L29 24L29 23L25 23L25 22ZM13 23L13 24L9 24L9 26L10 26L10 27L9 27L9 28L13 28L13 27L14 27L14 29L13 29L13 30L15 30L15 29L16 29L16 28L15 28L15 26L13 26L13 24L14 24L14 23ZM31 24L31 25L32 25L32 27L31 27L31 28L33 28L33 25L32 25L32 24ZM10 25L10 26L11 26L11 27L12 27L12 26L11 26L11 25ZM22 25L22 27L23 27L23 25ZM25 25L25 28L28 28L28 25ZM26 26L26 27L27 27L27 26ZM10 29L10 30L11 30L11 31L12 31L12 29ZM22 29L22 30L23 30L23 29ZM31 29L31 31L33 31L33 29ZM13 31L13 32L14 32L14 31ZM32 32L32 33L33 33L33 32ZM0 0L0 7L7 7L7 0ZM1 1L1 6L6 6L6 1ZM2 2L2 5L5 5L5 2ZM26 0L26 7L33 7L33 0ZM27 1L27 6L32 6L32 1ZM28 2L28 5L31 5L31 2ZM0 26L0 33L7 33L7 26ZM1 27L1 32L6 32L6 27ZM2 28L2 31L5 31L5 28Z" fill="#000000"/></g></g></svg>
