<?xml version="1.0" encoding="UTF-8"?>
<svg xmlns="http://www.w3.org/2000/svg" version="1.1" width="500" height="500" viewBox="0 0 500 500"><rect x="0" y="0" width="500" height="500" fill="#ffffff"/><g transform="scale(15.152)"><g transform="translate(0,0)"><path fill-rule="evenodd" d="M8 0L8 1L9 1L9 2L10 2L10 3L11 3L11 1L13 1L13 2L12 2L12 4L11 4L11 5L10 5L10 4L9 4L9 5L10 5L10 8L9 8L9 6L8 6L8 8L9 8L9 10L6 10L6 11L5 11L5 8L3 8L3 9L2 9L2 8L0 8L0 10L1 10L1 11L0 11L0 13L1 13L1 11L2 11L2 13L4 13L4 15L3 15L3 14L2 14L2 16L1 16L1 14L0 14L0 19L3 19L3 20L1 20L1 21L0 21L0 25L3 25L3 24L4 24L4 25L8 25L8 26L11 26L11 25L10 25L10 23L8 23L8 22L9 22L9 21L10 21L10 19L12 19L12 21L14 21L14 24L13 24L13 25L12 25L12 26L13 26L13 25L15 25L15 26L14 26L14 27L12 27L12 28L11 28L11 27L9 27L9 28L8 28L8 30L9 30L9 29L10 29L10 28L11 28L11 30L12 30L12 31L11 31L11 33L12 33L12 31L13 31L13 33L14 33L14 31L17 31L17 30L16 30L16 29L15 29L15 30L12 30L12 29L13 29L13 28L16 28L16 26L17 26L17 27L20 27L20 29L19 29L19 28L18 28L18 30L19 30L19 31L20 31L20 32L19 32L19 33L21 33L21 31L22 31L22 32L23 32L23 31L22 31L22 30L21 30L21 26L19 26L19 25L17 25L17 24L18 24L18 22L16 22L16 21L18 21L18 20L20 20L20 18L21 18L21 17L17 17L17 19L16 19L16 17L15 17L15 16L17 16L17 15L18 15L18 16L19 16L19 15L20 15L20 16L21 16L21 15L20 15L20 14L19 14L19 13L17 13L17 12L18 12L18 11L19 11L19 12L20 12L20 13L21 13L21 14L22 14L22 13L21 13L21 11L25 11L25 12L24 12L24 13L23 13L23 14L25 14L25 12L26 12L26 13L27 13L27 14L28 14L28 13L27 13L27 12L29 12L29 15L30 15L30 16L28 16L28 15L26 15L26 16L24 16L24 17L25 17L25 19L26 19L26 20L27 20L27 19L28 19L28 18L29 18L29 17L30 17L30 16L31 16L31 18L32 18L32 19L29 19L29 20L33 20L33 15L32 15L32 16L31 16L31 15L30 15L30 12L31 12L31 13L33 13L33 12L31 12L31 11L30 11L30 10L29 10L29 9L27 9L27 8L26 8L26 9L27 9L27 11L26 11L26 10L24 10L24 9L25 9L25 8L23 8L23 9L22 9L22 10L21 10L21 11L19 11L19 10L20 10L20 9L18 9L18 8L17 8L17 6L18 6L18 7L19 7L19 6L18 6L18 5L20 5L20 8L21 8L21 5L22 5L22 7L23 7L23 6L24 6L24 7L25 7L25 6L24 6L24 5L23 5L23 4L24 4L24 3L25 3L25 2L24 2L24 3L23 3L23 4L22 4L22 2L23 2L23 0L22 0L22 1L21 1L21 2L20 2L20 1L19 1L19 0L18 0L18 1L17 1L17 2L20 2L20 3L16 3L16 2L15 2L15 0L14 0L14 1L13 1L13 0L11 0L11 1L9 1L9 0ZM24 0L24 1L25 1L25 0ZM14 3L14 4L12 4L12 5L11 5L11 7L12 7L12 9L10 9L10 10L9 10L9 11L8 11L8 13L6 13L6 12L7 12L7 11L6 11L6 12L5 12L5 14L8 14L8 13L9 13L9 14L13 14L13 13L14 13L14 15L12 15L12 16L11 16L11 15L9 15L9 18L8 18L8 17L5 17L5 16L2 16L2 17L4 17L4 18L3 18L3 19L4 19L4 20L5 20L5 21L3 21L3 23L4 23L4 22L5 22L5 21L6 21L6 22L7 22L7 21L9 21L9 19L10 19L10 18L11 18L11 17L14 17L14 18L12 18L12 19L13 19L13 20L14 20L14 19L15 19L15 17L14 17L14 16L15 16L15 13L16 13L16 15L17 15L17 13L16 13L16 12L17 12L17 11L16 11L16 12L15 12L15 13L14 13L14 11L15 11L15 10L14 10L14 11L13 11L13 10L12 10L12 9L15 9L15 8L16 8L16 6L17 6L17 5L18 5L18 4L17 4L17 5L16 5L16 3ZM20 4L20 5L21 5L21 4ZM12 5L12 7L13 7L13 8L15 8L15 5L14 5L14 7L13 7L13 5ZM6 8L6 9L7 9L7 8ZM32 8L32 9L31 9L31 10L32 10L32 11L33 11L33 10L32 10L32 9L33 9L33 8ZM1 9L1 10L2 10L2 11L4 11L4 10L2 10L2 9ZM16 9L16 10L17 10L17 9ZM10 10L10 11L9 11L9 13L10 13L10 12L11 12L11 13L13 13L13 11L12 11L12 10ZM28 10L28 11L29 11L29 10ZM18 14L18 15L19 15L19 14ZM6 15L6 16L7 16L7 15ZM22 15L22 18L23 18L23 19L22 19L22 20L23 20L23 22L21 22L21 21L19 21L19 22L20 22L20 23L19 23L19 24L20 24L20 25L21 25L21 23L24 23L24 24L23 24L23 25L22 25L22 29L23 29L23 30L24 30L24 29L25 29L25 31L26 31L26 32L27 32L27 31L26 31L26 29L27 29L27 30L28 30L28 32L29 32L29 31L30 31L30 32L33 32L33 29L32 29L32 27L30 27L30 26L32 26L32 24L31 24L31 23L33 23L33 22L32 22L32 21L27 21L27 22L26 22L26 21L25 21L25 20L24 20L24 18L23 18L23 15ZM4 18L4 19L7 19L7 20L6 20L6 21L7 21L7 20L8 20L8 18ZM18 18L18 19L17 19L17 20L18 20L18 19L19 19L19 18ZM26 18L26 19L27 19L27 18ZM15 20L15 21L16 21L16 20ZM1 21L1 24L2 24L2 21ZM24 21L24 23L25 23L25 24L28 24L28 23L29 23L29 24L30 24L30 25L31 25L31 24L30 24L30 23L31 23L31 22L30 22L30 23L29 23L29 22L28 22L28 23L26 23L26 22L25 22L25 21ZM12 22L12 23L13 23L13 22ZM5 23L5 24L8 24L8 25L9 25L9 24L8 24L8 23ZM15 24L15 25L16 25L16 24ZM23 25L23 26L24 26L24 25ZM25 25L25 28L28 28L28 25ZM26 26L26 27L27 27L27 26ZM29 28L29 29L28 29L28 30L30 30L30 31L31 31L31 30L30 30L30 29L31 29L31 28ZM20 30L20 31L21 31L21 30ZM8 31L8 33L10 33L10 32L9 32L9 31ZM15 32L15 33L16 33L16 32ZM17 32L17 33L18 33L18 32ZM24 32L24 33L25 33L25 32ZM0 0L0 7L7 7L7 0ZM1 1L1 6L6 6L6 1ZM2 2L2 5L5 5L5 2ZM26 0L26 7L33 7L33 0ZM27 1L27 6L32 6L32 1ZM28 2L28 5L31 5L31 2ZM0 26L0 33L7 33L7 26ZM1 27L1 32L6 32L6 27ZM2 28L2 31L5 31L5 28Z" fill="#000000"/></g></g></svg>
