<?xml version="1.0" encoding="UTF-8"?>
<svg xmlns="http://www.w3.org/2000/svg" version="1.1" width="500" height="500" viewBox="0 0 500 500"><rect x="0" y="0" width="500" height="500" fill="#ffffff"/><g transform="scale(15.152)"><g transform="translate(0,0)"><path fill-rule="evenodd" d="M8 0L8 1L9 1L9 2L10 2L10 3L11 3L11 1L13 1L13 2L12 2L12 4L11 4L11 5L10 5L10 4L9 4L9 5L10 5L10 8L9 8L9 6L8 6L8 8L9 8L9 10L10 10L10 11L9 11L9 14L8 14L8 13L7 13L7 12L6 12L6 11L8 11L8 10L6 10L6 9L7 9L7 8L6 8L6 9L5 9L5 8L3 8L3 9L2 9L2 8L0 8L0 11L1 11L1 9L2 9L2 14L3 14L3 15L2 15L2 16L3 16L3 17L2 17L2 18L0 18L0 25L5 25L5 24L6 24L6 25L8 25L8 26L9 26L9 28L8 28L8 30L9 30L9 31L8 31L8 33L9 33L9 31L10 31L10 29L9 29L9 28L11 28L11 30L12 30L12 31L11 31L11 33L12 33L12 31L13 31L13 33L14 33L14 31L17 31L17 30L16 30L16 29L15 29L15 30L12 30L12 29L13 29L13 28L16 28L16 26L17 26L17 27L20 27L20 29L19 29L19 28L18 28L18 30L19 30L19 31L20 31L20 32L19 32L19 33L21 33L21 31L22 31L22 32L23 32L23 31L22 31L22 30L21 30L21 26L19 26L19 25L17 25L17 24L18 24L18 22L16 22L16 21L18 21L18 20L20 20L20 18L21 18L21 17L17 17L17 19L16 19L16 17L15 17L15 16L17 16L17 15L18 15L18 16L19 16L19 15L20 15L20 16L21 16L21 15L20 15L20 14L19 14L19 13L17 13L17 12L18 12L18 11L19 11L19 12L20 12L20 13L21 13L21 14L22 14L22 13L21 13L21 11L25 11L25 12L24 12L24 13L23 13L23 14L25 14L25 12L26 12L26 13L27 13L27 14L28 14L28 13L27 13L27 12L29 12L29 15L30 15L30 16L28 16L28 15L26 15L26 16L24 16L24 17L25 17L25 19L26 19L26 20L27 20L27 19L28 19L28 18L29 18L29 17L30 17L30 16L31 16L31 18L32 18L32 19L29 19L29 20L33 20L33 15L32 15L32 16L31 16L31 15L30 15L30 12L31 12L31 13L33 13L33 12L31 12L31 11L30 11L30 10L29 10L29 9L27 9L27 8L26 8L26 9L27 9L27 11L26 11L26 10L24 10L24 9L25 9L25 8L23 8L23 9L22 9L22 10L21 10L21 11L19 11L19 10L20 10L20 9L18 9L18 8L17 8L17 6L18 6L18 7L19 7L19 6L18 6L18 5L20 5L20 8L21 8L21 5L22 5L22 7L23 7L23 6L24 6L24 7L25 7L25 6L24 6L24 5L23 5L23 4L24 4L24 3L25 3L25 2L24 2L24 3L23 3L23 4L22 4L22 2L23 2L23 0L22 0L22 1L21 1L21 2L20 2L20 1L19 1L19 0L18 0L18 1L17 1L17 2L20 2L20 3L16 3L16 2L15 2L15 0L14 0L14 1L13 1L13 0L11 0L11 1L9 1L9 0ZM24 0L24 1L25 1L25 0ZM14 3L14 4L12 4L12 5L11 5L11 7L12 7L12 9L10 9L10 10L12 10L12 11L13 11L13 13L11 13L11 12L10 12L10 14L13 14L13 15L12 15L12 16L11 16L11 17L10 17L10 15L8 15L8 14L7 14L7 13L6 13L6 14L5 14L5 15L4 15L4 17L3 17L3 18L5 18L5 17L6 17L6 18L8 18L8 19L10 19L10 21L11 21L11 22L9 22L9 20L8 20L8 21L6 21L6 20L7 20L7 19L1 19L1 24L5 24L5 22L4 22L4 23L2 23L2 22L3 22L3 21L4 21L4 20L5 20L5 21L6 21L6 22L8 22L8 23L10 23L10 24L8 24L8 25L10 25L10 27L11 27L11 28L12 28L12 27L14 27L14 25L13 25L13 24L14 24L14 23L15 23L15 21L16 21L16 20L15 20L15 19L14 19L14 20L13 20L13 21L12 21L12 19L13 19L13 18L12 18L12 19L11 19L11 17L13 17L13 16L14 16L14 15L15 15L15 13L16 13L16 15L17 15L17 13L16 13L16 12L17 12L17 11L16 11L16 12L15 12L15 13L14 13L14 11L15 11L15 10L14 10L14 11L13 11L13 10L12 10L12 9L15 9L15 8L16 8L16 6L17 6L17 5L18 5L18 4L17 4L17 5L16 5L16 3ZM20 4L20 5L21 5L21 4ZM12 5L12 7L13 7L13 8L15 8L15 5L14 5L14 7L13 7L13 5ZM32 8L32 9L31 9L31 10L32 10L32 11L33 11L33 10L32 10L32 9L33 9L33 8ZM3 9L3 13L5 13L5 12L4 12L4 11L5 11L5 9ZM16 9L16 10L17 10L17 9ZM28 10L28 11L29 11L29 10ZM0 13L0 16L1 16L1 13ZM13 13L13 14L14 14L14 13ZM6 14L6 15L5 15L5 16L6 16L6 17L8 17L8 18L9 18L9 16L6 16L6 15L7 15L7 14ZM18 14L18 15L19 15L19 14ZM22 15L22 18L23 18L23 19L22 19L22 20L23 20L23 22L21 22L21 21L19 21L19 22L20 22L20 23L19 23L19 24L20 24L20 25L21 25L21 23L24 23L24 24L23 24L23 25L22 25L22 29L23 29L23 30L24 30L24 29L25 29L25 31L26 31L26 32L27 32L27 31L26 31L26 29L27 29L27 30L28 30L28 32L29 32L29 31L30 31L30 32L33 32L33 30L32 30L32 31L30 31L30 30L31 30L31 29L30 29L30 30L28 30L28 29L29 29L29 28L32 28L32 29L33 29L33 27L30 27L30 26L32 26L32 24L31 24L31 23L33 23L33 22L32 22L32 21L27 21L27 22L26 22L26 21L25 21L25 20L24 20L24 18L23 18L23 15ZM18 18L18 19L17 19L17 20L18 20L18 19L19 19L19 18ZM26 18L26 19L27 19L27 18ZM2 20L2 21L3 21L3 20ZM24 21L24 23L25 23L25 24L28 24L28 23L29 23L29 24L30 24L30 25L31 25L31 24L30 24L30 23L31 23L31 22L30 22L30 23L29 23L29 22L28 22L28 23L26 23L26 22L25 22L25 21ZM12 22L12 23L13 23L13 22ZM6 23L6 24L7 24L7 23ZM15 24L15 25L16 25L16 24ZM12 25L12 26L13 26L13 25ZM23 25L23 26L24 26L24 25ZM25 25L25 28L28 28L28 25ZM26 26L26 27L27 27L27 26ZM20 30L20 31L21 31L21 30ZM15 32L15 33L16 33L16 32ZM17 32L17 33L18 33L18 32ZM24 32L24 33L25 33L25 32ZM0 0L0 7L7 7L7 0ZM1 1L1 6L6 6L6 1ZM2 2L2 5L5 5L5 2ZM26 0L26 7L33 7L33 0ZM27 1L27 6L32 6L32 1ZM28 2L28 5L31 5L31 2ZM0 26L0 33L7 33L7 26ZM1 27L1 32L6 32L6 27ZM2 28L2 31L5 31L5 28Z" fill="#000000"/></g></g></svg>
