<?xml version="1.0" encoding="UTF-8"?>
<svg xmlns="http://www.w3.org/2000/svg" version="1.1" width="100" height="100" viewBox="0 0 100 100"><rect x="0" y="0" width="100" height="100" fill="#ffffff"/><g transform="scale(3.03)"><g transform="translate(0,0)"><path fill-rule="evenodd" d="M10 0L10 2L11 2L11 0ZM12 0L12 1L13 1L13 2L12 2L12 4L13 4L13 3L14 3L14 4L15 4L15 5L17 5L17 6L16 6L16 8L17 8L17 9L18 9L18 8L17 8L17 6L18 6L18 7L19 7L19 6L18 6L18 5L21 5L21 6L20 6L20 8L22 8L22 9L19 9L19 10L18 10L18 12L16 12L16 11L17 11L17 10L16 10L16 9L12 9L12 7L13 7L13 5L11 5L11 6L10 6L10 4L11 4L11 3L8 3L8 4L9 4L9 5L8 5L8 7L9 7L9 8L6 8L6 9L7 9L7 10L5 10L5 8L0 8L0 10L1 10L1 11L0 11L0 14L1 14L1 16L0 16L0 18L1 18L1 17L3 17L3 16L5 16L5 17L4 17L4 18L3 18L3 21L5 21L5 20L6 20L6 21L8 21L8 22L9 22L9 23L7 23L7 22L6 22L6 23L4 23L4 22L2 22L2 21L0 21L0 25L1 25L1 22L2 22L2 23L4 23L4 24L2 24L2 25L8 25L8 27L10 27L10 29L9 29L9 28L8 28L8 33L12 33L12 31L13 31L13 30L11 30L11 26L10 26L10 25L9 25L9 23L10 23L10 24L11 24L11 25L12 25L12 26L13 26L13 27L12 27L12 29L13 29L13 28L14 28L14 29L16 29L16 30L15 30L15 31L14 31L14 32L15 32L15 33L16 33L16 32L17 32L17 33L18 33L18 32L17 32L17 31L18 31L18 30L20 30L20 31L19 31L19 33L20 33L20 31L21 31L21 32L22 32L22 33L23 33L23 32L24 32L24 33L25 33L25 32L24 32L24 31L27 31L27 32L28 32L28 33L29 33L29 31L30 31L30 32L31 32L31 33L32 33L32 32L31 32L31 31L30 31L30 30L33 30L33 28L32 28L32 26L33 26L33 24L32 24L32 26L31 26L31 25L30 25L30 24L31 24L31 23L32 23L32 22L33 22L33 21L32 21L32 20L31 20L31 19L32 19L32 18L33 18L33 17L32 17L32 16L31 16L31 15L32 15L32 14L33 14L33 13L31 13L31 15L30 15L30 13L29 13L29 10L28 10L28 8L27 8L27 9L26 9L26 8L24 8L24 7L25 7L25 6L24 6L24 7L23 7L23 5L24 5L24 4L23 4L23 3L22 3L22 2L21 2L21 1L24 1L24 0L17 0L17 1L16 1L16 0ZM8 1L8 2L9 2L9 1ZM19 1L19 2L16 2L16 4L17 4L17 3L19 3L19 4L20 4L20 1ZM14 2L14 3L15 3L15 2ZM21 3L21 4L22 4L22 3ZM9 6L9 7L10 7L10 6ZM11 6L11 7L12 7L12 6ZM14 6L14 8L15 8L15 6ZM21 6L21 7L22 7L22 6ZM10 8L10 9L9 9L9 10L7 10L7 11L6 11L6 12L7 12L7 13L6 13L6 14L7 14L7 15L5 15L5 16L7 16L7 17L6 17L6 18L7 18L7 19L6 19L6 20L8 20L8 21L9 21L9 20L10 20L10 21L11 21L11 22L13 22L13 23L12 23L12 25L15 25L15 26L16 26L16 27L17 27L17 28L16 28L16 29L17 29L17 28L19 28L19 27L20 27L20 26L19 26L19 27L17 27L17 26L16 26L16 25L17 25L17 24L18 24L18 25L19 25L19 23L20 23L20 25L22 25L22 24L21 24L21 23L20 23L20 22L23 22L23 23L24 23L24 24L27 24L27 22L25 22L25 21L27 21L27 20L28 20L28 19L26 19L26 18L25 18L25 17L28 17L28 18L29 18L29 17L30 17L30 19L29 19L29 20L30 20L30 21L28 21L28 24L30 24L30 23L29 23L29 22L30 22L30 21L31 21L31 20L30 20L30 19L31 19L31 16L30 16L30 15L29 15L29 13L28 13L28 16L26 16L26 14L25 14L25 13L27 13L27 12L28 12L28 11L27 11L27 10L25 10L25 9L24 9L24 8L23 8L23 9L24 9L24 10L19 10L19 11L24 11L24 12L25 12L25 13L24 13L24 14L23 14L23 13L22 13L22 12L20 12L20 13L22 13L22 15L23 15L23 17L22 17L22 16L21 16L21 15L20 15L20 14L18 14L18 15L17 15L17 16L16 16L16 15L15 15L15 14L17 14L17 13L14 13L14 12L15 12L15 11L14 11L14 12L13 12L13 13L12 13L12 11L13 11L13 10L12 10L12 9L11 9L11 8ZM29 8L29 9L30 9L30 8ZM31 8L31 10L33 10L33 9L32 9L32 8ZM2 9L2 13L1 13L1 14L2 14L2 13L3 13L3 14L5 14L5 12L4 12L4 9ZM10 9L10 11L11 11L11 9ZM24 10L24 11L25 11L25 12L26 12L26 11L25 11L25 10ZM7 11L7 12L8 12L8 13L7 13L7 14L8 14L8 15L9 15L9 18L10 18L10 19L11 19L11 18L10 18L10 17L12 17L12 18L13 18L13 19L12 19L12 21L13 21L13 20L14 20L14 21L16 21L16 22L15 22L15 23L14 23L14 24L16 24L16 23L18 23L18 22L20 22L20 20L22 20L22 19L23 19L23 18L24 18L24 20L25 20L25 18L24 18L24 17L25 17L25 16L24 16L24 17L23 17L23 18L22 18L22 19L21 19L21 17L20 17L20 16L19 16L19 17L18 17L18 16L17 16L17 19L16 19L16 18L15 18L15 17L12 17L12 15L13 15L13 14L11 14L11 15L9 15L9 14L8 14L8 13L11 13L11 12L8 12L8 11ZM30 11L30 12L31 12L31 11ZM18 12L18 13L19 13L19 12ZM2 15L2 16L3 16L3 15ZM14 15L14 16L15 16L15 15ZM28 16L28 17L29 17L29 16ZM4 18L4 19L5 19L5 18ZM19 18L19 19L17 19L17 20L18 20L18 21L19 21L19 20L20 20L20 18ZM0 19L0 20L1 20L1 19ZM8 19L8 20L9 20L9 19ZM14 19L14 20L15 20L15 19ZM23 21L23 22L24 22L24 21ZM6 23L6 24L7 24L7 23ZM23 25L23 26L22 26L22 28L20 28L20 29L21 29L21 31L22 31L22 30L23 30L23 31L24 31L24 27L23 27L23 26L24 26L24 25ZM25 25L25 28L28 28L28 25ZM29 25L29 28L30 28L30 29L32 29L32 28L30 28L30 27L31 27L31 26L30 26L30 25ZM26 26L26 27L27 27L27 26ZM14 27L14 28L15 28L15 27ZM22 28L22 29L23 29L23 28ZM25 29L25 30L28 30L28 31L29 31L29 30L28 30L28 29ZM10 30L10 31L9 31L9 32L11 32L11 30ZM0 0L0 7L7 7L7 0ZM1 1L1 6L6 6L6 1ZM2 2L2 5L5 5L5 2ZM26 0L26 7L33 7L33 0ZM27 1L27 6L32 6L32 1ZM28 2L28 5L31 5L31 2ZM0 26L0 33L7 33L7 26ZM1 27L1 32L6 32L6 27ZM2 28L2 31L5 31L5 28Z" fill="#000000"/></g></g></svg>
